<svg id="Layer_1" data-name="Layer 1" xmlns="http://www.w3.org/2000/svg" width="6.3in" height="5.7in" viewBox="0 0 454.5 409.8"><title>logo</title><line x1="99.7" y1="144.9" x2="292.8" y2="144.9" fill="none" stroke="#070405" stroke-linecap="round" stroke-miterlimit="10" stroke-width="16.79"/><line x1="292.8" y1="144.9" x2="164.5" y2="284" fill="none" stroke="#070405" stroke-linecap="round" stroke-miterlimit="10" stroke-width="16.79"/><line x1="159.7" y1="228.9" x2="159.7" y2="377.6" fill="none" stroke="#070405" stroke-linecap="round" stroke-miterlimit="10" stroke-width="16.79"/><line x1="99.7" y1="144.9" x2="187.2" y2="32.2" fill="none" stroke="#070405" stroke-linecap="round" stroke-miterlimit="10" stroke-width="16.79"/><line x1="240.8" y1="83.8" x2="187.2" y2="32.2" fill="none" stroke="#070405" stroke-linecap="round" stroke-miterlimit="10" stroke-width="16.79"/><line x1="115.2" y1="144.9" x2="308.3" y2="144.9" fill="none" stroke="#391215" stroke-linecap="round" stroke-miterlimit="10" stroke-width="16.79"/><line x1="308.3" y1="144.9" x2="180" y2="284" fill="none" stroke="#391215" stroke-linecap="round" stroke-miterlimit="10" stroke-width="16.79"/><line x1="175.2" y1="228.9" x2="175.2" y2="377.6" fill="none" stroke="#391215" stroke-linecap="round" stroke-miterlimit="10" stroke-width="16.79"/><line x1="115.2" y1="144.9" x2="202.7" y2="32.2" fill="none" stroke="#391215" stroke-linecap="round" stroke-miterlimit="10" stroke-width="16.79"/><line x1="256.3" y1="83.8" x2="202.7" y2="32.2" fill="none" stroke="#391215" stroke-linecap="round" stroke-miterlimit="10" stroke-width="16.79"/><line x1="130.7" y1="144.9" x2="323.8" y2="144.9" fill="none" stroke="#651317" stroke-linecap="round" stroke-miterlimit="10" stroke-width="16.79"/><line x1="323.8" y1="144.9" x2="195.5" y2="284" fill="none" stroke="#651317" stroke-linecap="round" stroke-miterlimit="10" stroke-width="16.79"/><line x1="190.7" y1="228.9" x2="190.7" y2="377.6" fill="none" stroke="#651317" stroke-linecap="round" stroke-miterlimit="10" stroke-width="16.79"/><line x1="130.7" y1="144.9" x2="218.2" y2="32.2" fill="none" stroke="#651317" stroke-linecap="round" stroke-miterlimit="10" stroke-width="16.79"/><line x1="271.8" y1="83.8" x2="218.2" y2="32.2" fill="none" stroke="#651317" stroke-linecap="round" stroke-miterlimit="10" stroke-width="16.79"/><line x1="146.2" y1="144.9" x2="339.3" y2="144.9" fill="none" stroke="#801922" stroke-linecap="round" stroke-miterlimit="10" stroke-width="16.79"/><line x1="339.3" y1="144.9" x2="211" y2="284" fill="none" stroke="#801922" stroke-linecap="round" stroke-miterlimit="10" stroke-width="16.79"/><line x1="206.2" y1="228.9" x2="206.2" y2="377.6" fill="none" stroke="#801922" stroke-linecap="round" stroke-miterlimit="10" stroke-width="16.79"/><line x1="146.2" y1="144.9" x2="233.7" y2="32.2" fill="none" stroke="#801922" stroke-linecap="round" stroke-miterlimit="10" stroke-width="16.79"/><line x1="287.3" y1="83.8" x2="233.7" y2="32.2" fill="none" stroke="#801922" stroke-linecap="round" stroke-miterlimit="10" stroke-width="16.79"/><line x1="161.7" y1="144.9" x2="354.8" y2="144.9" fill="none" stroke="#ae2e2a" stroke-linecap="round" stroke-miterlimit="10" stroke-width="16.79"/><line x1="354.8" y1="144.9" x2="226.5" y2="284" fill="none" stroke="#ae2e2a" stroke-linecap="round" stroke-miterlimit="10" stroke-width="16.79"/><line x1="221.7" y1="228.9" x2="221.7" y2="377.6" fill="none" stroke="#ae2e2a" stroke-linecap="round" stroke-miterlimit="10" stroke-width="16.79"/><line x1="161.7" y1="144.9" x2="249.2" y2="32.2" fill="none" stroke="#ae2e2a" stroke-linecap="round" stroke-miterlimit="10" stroke-width="16.79"/><line x1="302.8" y1="83.8" x2="249.2" y2="32.2" fill="none" stroke="#ae2e2a" stroke-linecap="round" stroke-miterlimit="10" stroke-width="16.79"/></svg>