<svg id="Layer_1" data-name="Layer 1" xmlns="http://www.w3.org/2000/svg" xmlns:xlink="http://www.w3.org/1999/xlink" width="6.3in" height="5.7in" viewBox="0 0 454.5 409.8"><defs><linearGradient id="linear-gradient" x1="178.85" y1="32.2" x2="257.63" y2="32.2" gradientUnits="userSpaceOnUse"><stop offset="0.2" stop-color="#0a0908"/><stop offset="0.39" stop-color="#371418"/><stop offset="0.56" stop-color="#651218"/><stop offset="0.77" stop-color="#801821"/><stop offset="1" stop-color="#ae2b2a"/></linearGradient><linearGradient id="linear-gradient-2" x1="232.45" y1="83.77" x2="311.23" y2="83.77" xlink:href="#linear-gradient"/><linearGradient id="linear-gradient-3" x1="151.28" y1="228.88" x2="230.06" y2="228.88" xlink:href="#linear-gradient"/><linearGradient id="linear-gradient-4" x1="151.28" y1="377.59" x2="230.06" y2="377.59" xlink:href="#linear-gradient"/></defs><title>logo</title><line x1="292.8" y1="144.9" x2="164.5" y2="284" fill="none" stroke="#070405" stroke-linecap="round" stroke-miterlimit="10" stroke-width="16.79"/><line x1="187.2" y1="32.2" x2="249.2" y2="32.2" fill="#070405" stroke-linecap="round" stroke-miterlimit="10" stroke-width="16.79" stroke="url(#linear-gradient)"/><line x1="240.8" y1="83.8" x2="302.8" y2="83.8" fill="#070405" stroke-linecap="round" stroke-miterlimit="10" stroke-width="16.79" stroke="url(#linear-gradient-2)"/><line x1="159.7" y1="228.9" x2="221.7" y2="228.9" fill="none" stroke-linecap="round" stroke-miterlimit="10" stroke-width="16.79" stroke="url(#linear-gradient-3)"/><line x1="159.7" y1="377.6" x2="221.7" y2="377.6" fill="none" stroke-linecap="round" stroke-miterlimit="10" stroke-width="16.79" stroke="url(#linear-gradient-4)"/><line x1="99.7" y1="144.9" x2="292.8" y2="144.9" fill="none" stroke="#070405" stroke-linecap="round" stroke-miterlimit="10" stroke-width="16.79"/><line x1="159.7" y1="228.9" x2="159.7" y2="377.6" fill="none" stroke="#070405" stroke-linecap="round" stroke-miterlimit="10" stroke-width="16.79"/><line x1="99.7" y1="144.9" x2="187.2" y2="32.2" fill="none" stroke="#070405" stroke-linecap="round" stroke-miterlimit="10" stroke-width="16.79"/><line x1="240.8" y1="83.8" x2="187.2" y2="32.2" fill="none" stroke="#070405" stroke-linecap="round" stroke-miterlimit="10" stroke-width="16.79"/><line x1="115.2" y1="144.9" x2="308.3" y2="144.9" fill="none" stroke="#391215" stroke-linecap="round" stroke-miterlimit="10" stroke-width="16.79"/><line x1="308.3" y1="144.9" x2="180" y2="284" fill="none" stroke="#391215" stroke-linecap="round" stroke-miterlimit="10" stroke-width="16.79"/><line x1="175.2" y1="228.9" x2="175.2" y2="377.6" fill="none" stroke="#391215" stroke-linecap="round" stroke-miterlimit="10" stroke-width="16.79"/><line x1="115.2" y1="144.9" x2="202.7" y2="32.2" fill="none" stroke="#391215" stroke-linecap="round" stroke-miterlimit="10" stroke-width="16.79"/><line x1="256.3" y1="83.8" x2="202.7" y2="32.2" fill="none" stroke="#391215" stroke-linecap="round" stroke-miterlimit="10" stroke-width="16.79"/><line x1="130.7" y1="144.9" x2="323.8" y2="144.9" fill="none" stroke="#651317" stroke-linecap="round" stroke-miterlimit="10" stroke-width="16.79"/><line x1="323.8" y1="144.9" x2="195.5" y2="284" fill="none" stroke="#651317" stroke-linecap="round" stroke-miterlimit="10" stroke-width="16.79"/><line x1="190.7" y1="228.9" x2="190.7" y2="377.6" fill="none" stroke="#651317" stroke-linecap="round" stroke-miterlimit="10" stroke-width="16.79"/><line x1="130.7" y1="144.9" x2="218.2" y2="32.2" fill="none" stroke="#651317" stroke-linecap="round" stroke-miterlimit="10" stroke-width="16.79"/><line x1="271.8" y1="83.8" x2="218.2" y2="32.2" fill="none" stroke="#651317" stroke-linecap="round" stroke-miterlimit="10" stroke-width="16.79"/><line x1="146.2" y1="144.9" x2="339.3" y2="144.9" fill="none" stroke="#801922" stroke-linecap="round" stroke-miterlimit="10" stroke-width="16.79"/><line x1="339.3" y1="144.9" x2="211" y2="284" fill="none" stroke="#801922" stroke-linecap="round" stroke-miterlimit="10" stroke-width="16.79"/><line x1="206.2" y1="228.9" x2="206.2" y2="377.6" fill="none" stroke="#801922" stroke-linecap="round" stroke-miterlimit="10" stroke-width="16.79"/><line x1="146.2" y1="144.9" x2="233.7" y2="32.2" fill="none" stroke="#801922" stroke-linecap="round" stroke-miterlimit="10" stroke-width="16.79"/><line x1="287.3" y1="83.8" x2="233.7" y2="32.2" fill="none" stroke="#801922" stroke-linecap="round" stroke-miterlimit="10" stroke-width="16.79"/><line x1="161.7" y1="144.9" x2="354.8" y2="144.9" fill="none" stroke="#ae2e2a" stroke-linecap="round" stroke-miterlimit="10" stroke-width="16.79"/><line x1="354.8" y1="144.9" x2="226.5" y2="284" fill="none" stroke="#ae2e2a" stroke-linecap="round" stroke-miterlimit="10" stroke-width="16.79"/><line x1="221.7" y1="228.9" x2="221.7" y2="377.6" fill="none" stroke="#ae2e2a" stroke-linecap="round" stroke-miterlimit="10" stroke-width="16.79"/><line x1="161.7" y1="144.9" x2="249.2" y2="32.2" fill="none" stroke="#ae2e2a" stroke-linecap="round" stroke-miterlimit="10" stroke-width="16.79"/><line x1="302.8" y1="83.8" x2="249.2" y2="32.2" fill="none" stroke="#ae2e2a" stroke-linecap="round" stroke-miterlimit="10" stroke-width="16.79"/></svg>